<svg xmlns="http://www.w3.org/2000/svg" width="1200" height="760" viewBox="0 0 1200 760" font-family="Inter, system-ui, sans-serif">
  <rect width="1200" height="760" fill="#0f1117"/>
  <rect x="0" y="0" width="64" height="760" fill="#12151c"/><circle cx="32" cy="32" r="14" fill="#6366f1"/><text x="32" y="37" fill="#fff" font-size="14" text-anchor="middle" font-weight="700">S</text>
  <rect x="64" y="0" width="220" height="760" fill="#171a21" stroke="#262b36"/>
  <text x="84" y="80" fill="#8b95a7" font-size="13">Home</text>
  <text x="84" y="116" fill="#8b95a7" font-size="13">Projects</text>
  <text x="84" y="152" fill="#e2e8f0" font-size="13" font-weight="600">Agents</text>
  <text x="84" y="188" fill="#8b95a7" font-size="13">Knowledge</text>
  <text x="84" y="224" fill="#8b95a7" font-size="13">System</text>
  <text x="320" y="56" fill="#e2e8f0" font-size="20" font-weight="700">Agents</text>
  <text x="320" y="80" fill="#8b95a7" font-size="12">Your AI workforce · 12 active</text>
  <rect x="320" y="100" width="150" height="34" rx="6" fill="#6366f1"/><text x="395" y="122" fill="#fff" font-size="13" text-anchor="middle">Spawn agent</text>
  <rect x="480" y="100" width="120" height="34" rx="6" fill="#1f2733" stroke="#3a4250"/><text x="540" y="122" fill="#e2e8f0" font-size="13" text-anchor="middle">Groups</text>
  <rect x="610" y="100" width="120" height="34" rx="6" fill="#1f2733" stroke="#3a4250"/><text x="670" y="122" fill="#e2e8f0" font-size="13" text-anchor="middle">Leaderboard</text>
  <!-- agent cards grid -->
  <g>
    <rect x="320" y="160" width="270" height="130" rx="8" fill="#171a21" stroke="#262b36"/>
    <circle cx="356" cy="196" r="20" fill="#6366f1" stroke="#a5b4fc" stroke-width="2"/>
    <text x="356" y="202" fill="#fff" font-size="14" text-anchor="middle" font-weight="700">SA</text>
    <text x="388" y="190" fill="#e2e8f0" font-size="13" font-weight="600">System Architect</text>
    <text x="388" y="208" fill="#8b95a7" font-size="11">Planner · Elo 1820</text>
    <text x="340" y="250" fill="#8b95a7" font-size="11">last: debate 4m ago</text>
    <rect x="340" y="262" width="110" height="22" rx="5" fill="#1f2733" stroke="#3a4250"/><text x="395" y="277" fill="#e2e8f0" font-size="11" text-anchor="middle">Ask agent →</text>
  </g>
  <g>
    <rect x="610" y="160" width="270" height="130" rx="8" fill="#171a21" stroke="#262b36"/>
    <circle cx="646" cy="196" r="20" fill="#22c55e" stroke="#bbf7d0" stroke-width="2"/>
    <text x="646" y="202" fill="#04210f" font-size="14" text-anchor="middle" font-weight="700">SK</text>
    <text x="678" y="190" fill="#e2e8f0" font-size="13" font-weight="600">Skeptic</text>
    <text x="678" y="208" fill="#8b95a7" font-size="11">Critic · Elo 1740</text>
    <text x="630" y="250" fill="#8b95a7" font-size="11">last: research 22m</text>
    <rect x="630" y="262" width="110" height="22" rx="5" fill="#1f2733" stroke="#3a4250"/><text x="685" y="277" fill="#e2e8f0" font-size="11" text-anchor="middle">Ask agent →</text>
  </g>
  <g>
    <rect x="900" y="160" width="270" height="130" rx="8" fill="#171a21" stroke="#262b36"/>
    <circle cx="936" cy="196" r="20" fill="#f59e0b" stroke="#fde68a" stroke-width="2"/>
    <text x="936" y="202" fill="#3a2600" font-size="14" text-anchor="middle" font-weight="700">ME</text>
    <text x="968" y="190" fill="#e2e8f0" font-size="13" font-weight="600">Mediator</text>
    <text x="968" y="208" fill="#8b95a7" font-size="11">Synthesizer · Elo 1690</text>
    <text x="920" y="250" fill="#8b95a7" font-size="11">last: chat 1h</text>
    <rect x="920" y="262" width="110" height="22" rx="5" fill="#1f2733" stroke="#3a4250"/><text x="975" y="277" fill="#e2e8f0" font-size="11" text-anchor="middle">Ask agent →</text>
  </g>
  <rect x="320" y="320" width="850" height="380" rx="8" fill="#171a21" stroke="#262b36"/>
  <text x="344" y="356" fill="#6366f1" font-size="12" font-weight="700">EMPTY STATE (when no agents)</text>
  <circle cx="480" cy="470" r="40" fill="#1f2733" stroke="#3a4250"/>
  <text x="480" y="478" fill="#8b95a7" font-size="30" text-anchor="middle">+</text>
  <text x="480" y="540" fill="#e2e8f0" font-size="14" text-anchor="middle">No agents yet</text>
  <text x="480" y="564" fill="#8b95a7" font-size="12" text-anchor="middle">Spawn your first agent to start a debate or research task.</text>
  <rect x="420" y="586" width="120" height="34" rx="6" fill="#6366f1"/><text x="480" y="608" fill="#fff" font-size="13" text-anchor="middle">Spawn agent</text>
</svg>
