<svg xmlns="http://www.w3.org/2000/svg" width="1200" height="760" viewBox="0 0 1200 760" font-family="Inter, system-ui, sans-serif">
  <rect width="1200" height="760" fill="#0f1117"/>
  <rect x="0" y="0" width="64" height="760" fill="#12151c"/><circle cx="32" cy="32" r="14" fill="#6366f1"/><text x="32" y="37" fill="#fff" font-size="14" text-anchor="middle" font-weight="700">S</text>
  <text x="320" y="56" fill="#e2e8f0" font-size="20" font-weight="700">Research — Quantum Batteries</text>
  <text x="320" y="80" fill="#8b95a7" font-size="12">3 / 7 phases complete</text>
  <!-- phase rail -->
  <rect x="320" y="110" width="260" height="580" rx="8" fill="#171a21" stroke="#262b36"/>
  <text x="344" y="142" fill="#6366f1" font-size="12" font-weight="700">PHASES</text>
  <g font-size="12">
    <circle cx="356" cy="176" r="6" fill="#22c55e"/><text x="374" y="180" fill="#e2e8f0">1 Literature scan</text>
    <circle cx="356" cy="212" r="6" fill="#22c55e"/><text x="374" y="216" fill="#e2e8f0">2 Citation graph</text>
    <circle cx="356" cy="248" r="6" fill="#22c55e"/><text x="374" y="252" fill="#e2e8f0">3 Citations export</text>
    <circle cx="356" cy="284" r="6" fill="#f59e0b"/><text x="374" y="288" fill="#f59e0b">4 Knowledge graph</text><text x="374" y="304" fill="#8b95a7" font-size="10">planned</text>
    <circle cx="356" cy="340" r="6" fill="#f59e0b"/><text x="374" y="344" fill="#f59e0b">5 Systematic review</text><text x="374" y="360" fill="#8b95a7" font-size="10">planned</text>
    <circle cx="356" cy="396" r="6" fill="#f59e0b"/><text x="374" y="400" fill="#f59e0b">6 Fact-check</text><text x="374" y="416" fill="#8b95a7" font-size="10">planned</text>
    <circle cx="356" cy="452" r="6" fill="#f59e0b"/><text x="374" y="456" fill="#f59e0b">7 Peer review</text><text x="374" y="472" fill="#8b95a7" font-size="10">planned</text>
  </g>
  <text x="344" y="540" fill="#8b95a7" font-size="11">Unavailable phases shown</text>
  <text x="344" y="558" fill="#8b95a7" font-size="11">explicitly (UX-010).</text>
  <!-- results -->
  <rect x="600" y="110" width="570" height="580" rx="8" fill="#171a21" stroke="#262b36"/>
  <text x="624" y="142" fill="#e2e8f0" font-size="13" font-weight="600">Citations (12)</text>
  <g font-family="JetBrains Mono, monospace" font-size="11" fill="#8b95a7">
    <text x="624" y="172">[1] A. Smith, Solid-state reviews (2024)</text>
    <text x="624" y="196">[2] B. Lee, Ionic conductivity (2023)</text>
    <text x="624" y="220">[3] C. Ruiz, Anode materials (2025)</text>
    <text x="624" y="244">[4] D. Novak, Dendrite suppression</text>
    <text x="624" y="268">[5] E. Tan, Thermal stability</text>
  </g>
  <rect x="624" y="300" width="120" height="30" rx="6" fill="#1f2733" stroke="#3a4250"/><text x="684" y="319" fill="#e2e8f0" font-size="12" text-anchor="middle">BibTeX</text>
  <rect x="756" y="300" width="120" height="30" rx="6" fill="#1f2733" stroke="#3a4250"/><text x="816" y="319" fill="#e2e8f0" font-size="12" text-anchor="middle">APA</text>
  <text x="624" y="372" fill="#e2e8f0" font-size="13" font-weight="600">Citation graph</text>
  <g stroke="#3a4250" stroke-width="1.5">
    <line x1="700" y1="420" x2="640" y2="480"/><line x1="700" y1="420" x2="760" y2="480"/><line x1="700" y1="420" x2="700" y2="540"/>
  </g>
  <circle cx="700" cy="420" r="10" fill="#6366f1"/><circle cx="640" cy="480" r="10" fill="#22c55e"/><circle cx="760" cy="480" r="10" fill="#22c55e"/><circle cx="700" cy="540" r="10" fill="#f59e0b"/>
  <text x="320" y="720" fill="#8b95a7" font-size="11">Design A — Research (mockup 06) · dark phases surfaced as "planned" instead of hidden</text>
</svg>
