<svg xmlns="http://www.w3.org/2000/svg" width="1200" height="760" viewBox="0 0 1200 760" font-family="IBM Plex Sans, system-ui, sans-serif">
  <rect width="1200" height="760" fill="#0a0c10"/>
  <!-- command bar -->
  <rect x="0" y="0" width="1200" height="48" fill="#12151a" stroke="#222831"/>
  <circle cx="24" cy="24" r="10" fill="#06b6d4"/><text x="24" y="29" fill="#04222a" font-size="12" text-anchor="middle" font-weight="700">S</text>
  <rect x="48" y="10" width="420" height="28" rx="6" fill="#0a0c10" stroke="#222831"/>
  <text x="62" y="29" fill="#7d8aa0" font-size="12">⌘K · type a command or search…</text>
  <circle cx="1120" cy="24" r="8" fill="#22c55e"/><text x="1100" y="29" fill="#7d8aa0" font-size="11" text-anchor="end">healthy</text>
  <text x="980" y="29" fill="#f59e0b" font-size="11">⚠ 2 alerts</text>
  <!-- rail -->
  <rect x="0" y="48" width="56" height="712" fill="#12151a"/>
  <rect x="0" y="48" width="3" height="40" fill="#06b6d4"/>
  <rect x="320" y="64" width="1" height="696" fill="#222831"/>
  <!-- widgets -->
  <text x="80" y="84" fill="#e6edf3" font-size="18" font-weight="700">Operations Overview</text>
  <!-- health gauge -->
  <rect x="80" y="104" width="270" height="180" rx="6" fill="#12151a" stroke="#222831"/>
  <text x="96" y="128" fill="#7d8aa0" font-size="11">SYSTEM HEALTH</text>
  <circle cx="215" cy="200" r="50" fill="none" stroke="#222831" stroke-width="10"/>
  <circle cx="215" cy="200" r="50" fill="none" stroke="#22c55e" stroke-width="10" stroke-dasharray="283" stroke-dashoffset="40" transform="rotate(-90 215 200)"/>
  <text x="215" y="206" fill="#e6edf3" font-size="22" text-anchor="middle" font-weight="700">92%</text>
  <!-- active ops -->
  <rect x="366" y="104" width="380" height="180" rx="6" fill="#12151a" stroke="#222831"/>
  <text x="382" y="128" fill="#7d8aa0" font-size="11">ACTIVE OPERATIONS</text>
  <g font-size="11" fill="#e6edf3">
    <text x="382" y="152">Medical Ethics Debate</text><rect x="382" y="158" width="340" height="8" rx="4" fill="#222831"/><rect x="382" y="158" width="136" height="8" rx="4" fill="#06b6d4"/>
    <text x="382" y="192">Quantum Research</text><rect x="382" y="198" width="340" height="8" rx="4" fill="#222831"/><rect x="382" y="198" width="146" height="8" rx="4" fill="#06b6d4"/>
    <text x="382" y="232">Invoke: Architect</text><rect x="382" y="238" width="340" height="8" rx="4" fill="#222831"/><rect x="382" y="238" width="340" height="8" rx="4" fill="#22c55e"/>
  </g>
  <!-- fleet -->
  <rect x="762" y="104" width="370" height="180" rx="6" fill="#12151a" stroke="#222831"/>
  <text x="778" y="128" fill="#7d8aa0" font-size="11">FLEET · 12 agents</text>
  <g>
    <rect x="778" y="140" width="50" height="50" rx="6" fill="#0a0c10" stroke="#22c55e"/><text x="803" y="171" fill="#e6edf3" font-size="12" text-anchor="middle" font-weight="700">SA</text>
    <rect x="838" y="140" width="50" height="50" rx="6" fill="#0a0c10" stroke="#06b6d4"/><text x="863" y="171" fill="#e6edf3" font-size="12" text-anchor="middle" font-weight="700">SK</text>
    <rect x="898" y="140" width="50" height="50" rx="6" fill="#0a0c10" stroke="#06b6d4"/><text x="923" y="171" fill="#e6edf3" font-size="12" text-anchor="middle" font-weight="700">ME</text>
    <rect x="958" y="140" width="50" height="50" rx="6" fill="#0a0c10" stroke="#f59e0b"/><text x="983" y="171" fill="#e6edf3" font-size="12" text-anchor="middle" font-weight="700">AN</text>
    <rect x="1018" y="140" width="50" height="50" rx="6" fill="#0a0c10" stroke="#22c55e"/><text x="1043" y="171" fill="#e6edf3" font-size="12" text-anchor="middle" font-weight="700">CR</text>
  </g>
  <text x="778" y="220" fill="#7d8aa0" font-size="10">● 8 ready  ● 3 busy  ● 1 idle</text>
  <!-- live stream -->
  <rect x="80" y="300" width="1052" height="420" rx="6" fill="#12151a" stroke="#222831"/>
  <text x="96" y="324" fill="#06b6d4" font-size="11" font-weight="700">LIVE EVENT STREAM</text>
  <rect x="1080" y="312" width="40" height="20" rx="4" fill="#0a0c10" stroke="#222831"/><text x="1100" y="326" fill="#7d8aa0" font-size="10" text-anchor="middle">⏸</text>
  <g font-family="JetBrains Mono, monospace" font-size="11">
    <text x="96" y="254" fill="#7d8aa0"></text>
    <text x="96" y="360" fill="#22c55e">12:04  debate:turn:complete   agent-2 responded (Medical Ethics)</text>
    <text x="96" y="384" fill="#06b6d4">12:03  operation:start        research Quantum Batteries</text>
    <text x="96" y="408" fill="#f59e0b">12:01  policy:rejected        no policy for mode=debate</text>
    <text x="96" y="432">11:58  agent:spawned        System Architect ready</text>
    <text x="96" y="456" fill="#ef4444">11:50  key:error              openrouter key 402</text>
    <text x="96" y="480">11:40  research:phase        citation-graph 12 nodes</text>
    <text x="96" y="504">11:22  chat:message          user → Claude</text>
    <text x="96" y="528">11:10  debate:verdict        consensus reached</text>
    <text x="96" y="552">11:02  invocation:done       Architect chat</text>
    <text x="96" y="576">10:55  operation:pause      Medical Ethics (user)</text>
    <text x="96" y="600">10:48  scheduler:noop        (preview — not connected)</text>
    <text x="96" y="624">10:40  agent:busy            Skeptic → research</text>
  </g>
  <text x="80" y="744" fill="#7d8aa0" font-size="11">Design B — Control Center · Overview (mockup 01) · realtime is the default surface</text>
</svg>
