<svg xmlns="http://www.w3.org/2000/svg" width="1200" height="760" viewBox="0 0 1200 760" font-family="Space Grotesk, Inter, system-ui, sans-serif">
  <rect width="1200" height="760" fill="#15101c"/>
  <rect x="0" y="0" width="72" height="760" fill="#1c1626"/><circle cx="36" cy="32" r="14" fill="#d946ef"/>
  <text x="96" y="44" fill="#f4ecff" font-size="18" font-weight="700">Invoke — Node graph + scoped live</text>
  <rect x="96" y="64" width="1008" height="630" rx="10" fill="#1c1626" stroke="#3a2d4d"/>
  <circle cx="260" cy="240" r="46" fill="#241b30" stroke="#d946ef" stroke-width="2"/><text x="260" y="245" fill="#f4ecff" font-size="13" text-anchor="middle" font-weight="700">SA</text>
  <circle cx="620" cy="240" r="46" fill="#241b30" stroke="#22d3ee" stroke-width="2"/><text x="620" y="245" fill="#f4ecff" font-size="13" text-anchor="middle">Chat</text>
  <circle cx="940" cy="240" r="46" fill="#241b30" stroke="#fb7185" stroke-width="2"/><text x="940" y="245" fill="#f4ecff" font-size="11" text-anchor="middle">Debate</text>
  <line x1="306" y1="240" x2="574" y2="240" stroke="#22d3ee" stroke-width="3"/>
  <line x1="666" y1="240" x2="894" y2="240" stroke="#fb7185" stroke-width="3" stroke-dasharray="6 3"/>
  <!-- rejection badge -->
  <rect x="820" y="180" width="240" height="34" rx="8" fill="#fb7185"/><text x="940" y="202" fill="#fff" font-size="11" text-anchor="middle" font-weight="700">⚠ no policy (debate)</text>
  <text x="940" y="320" fill="#f4ecff" font-size="11" text-anchor="middle">open Policies →</text>
  <rect x="260" y="430" width="700" height="200" rx="10" fill="#241b30" stroke="#3a2d4d"/>
  <text x="280" y="460" fill="#d946ef" font-size="12" font-weight="700">LIVE · THIS INVOCATION (scoped — UX-012)</text>
  <g font-family="JetBrains Mono, monospace" font-size="11" fill="#a392b8">
    <text x="280" y="492">12:04  invocation:requested   SA</text>
    <text x="280" y="516" fill="#34d399">12:04  invocation:accepted    policy=chat</text>
    <text x="280" y="540" fill="#fb7185">12:05  invocation:rejected    mode=debate</text>
    <text x="280" y="564" fill="#22d3ee">12:06  chat:message          SA → user</text>
  </g>
  <text x="96" y="744" fill="#a392b8" font-size="11">Design C — Invoke Node (mockup 05) · red edge + tooltip + scoped feed</text>
</svg>
